<svg width="119" height="119" viewBox="0 0 119 119" fill="none" xmlns="http://www.w3.org/2000/svg">
<g filter="url(#filter0_b_515_56633)">
<path d="M40.204 16.2444C44.6893 10.4555 52.7141 8.77985 59.1411 12.2903L63.0538 14.4273C65.8079 15.9316 68.9664 16.5288 72.0796 16.1337L76.5024 15.5725C83.7673 14.6506 90.6266 19.1402 92.6889 26.167L93.9445 30.4448C94.8283 33.456 96.6394 36.1116 99.1201 38.0336L102.644 40.7642C108.433 45.2494 110.109 53.2743 106.599 59.7013L104.461 63.614C102.957 66.3681 102.36 69.5266 102.755 72.6398L103.316 77.0626C104.238 84.3275 99.7486 91.1868 92.7218 93.2491L88.444 94.5047C85.4328 95.3884 82.7772 97.1996 80.8551 99.6803L78.1246 103.205C73.6393 108.993 65.6145 110.669 59.1875 107.159L55.2748 105.022C52.5207 103.517 49.3622 102.92 46.249 103.315L41.8262 103.876C34.5613 104.798 27.702 100.309 25.6396 93.282L24.3841 89.0041C23.5003 85.993 21.6892 83.3374 19.2085 81.4153L15.6843 78.6848C9.89531 74.1995 8.21967 66.1747 11.7301 59.7477L13.8672 55.835C15.3714 53.0809 15.9686 49.9224 15.5735 46.8092L15.0123 42.3864C14.0905 35.1215 18.58 28.2622 25.6068 26.1998L29.8847 24.9443C32.8958 24.0605 35.5514 22.2494 37.4735 19.7687L40.204 16.2444Z" fill="url(#paint0_linear_515_56633)"/>
<path d="M40.204 16.2444C44.6893 10.4555 52.7141 8.77985 59.1411 12.2903L63.0538 14.4273C65.8079 15.9316 68.9664 16.5288 72.0796 16.1337L76.5024 15.5725C83.7673 14.6506 90.6266 19.1402 92.6889 26.167L93.9445 30.4448C94.8283 33.456 96.6394 36.1116 99.1201 38.0336L102.644 40.7642C108.433 45.2494 110.109 53.2743 106.599 59.7013L104.461 63.614C102.957 66.3681 102.36 69.5266 102.755 72.6398L103.316 77.0626C104.238 84.3275 99.7486 91.1868 92.7218 93.2491L88.444 94.5047C85.4328 95.3884 82.7772 97.1996 80.8551 99.6803L78.1246 103.205C73.6393 108.993 65.6145 110.669 59.1875 107.159L55.2748 105.022C52.5207 103.517 49.3622 102.92 46.249 103.315L41.8262 103.876C34.5613 104.798 27.702 100.309 25.6396 93.282L24.3841 89.0041C23.5003 85.993 21.6892 83.3374 19.2085 81.4153L15.6843 78.6848C9.89531 74.1995 8.21967 66.1747 11.7301 59.7477L13.8672 55.835C15.3714 53.0809 15.9686 49.9224 15.5735 46.8092L15.0123 42.3864C14.0905 35.1215 18.58 28.2622 25.6068 26.1998L29.8847 24.9443C32.8958 24.0605 35.5514 22.2494 37.4735 19.7687L40.204 16.2444Z" stroke="url(#paint1_linear_515_56633)"/>
</g>
<path d="M50.0574 54.6154L53.0304 68.8537L50.4302 69.3967L42.3645 61.7286L42.2602 61.7503L44.1314 70.7119L41.1211 71.3405L38.148 57.1021L40.7899 56.5505L48.8055 64.2218L48.9307 64.1956L47.0609 55.241L50.0574 54.6154ZM55.5176 68.3344L52.5445 54.096L62.1388 52.0927L62.657 54.5747L56.0732 55.9494L56.7816 59.3421L62.8718 58.0705L63.3901 60.5524L57.2998 61.8241L58.0097 65.2238L64.6214 63.8433L65.1396 66.3252L55.5176 68.3344ZM73.3268 49.7565L76.3372 49.128L78.2679 58.3746C78.4847 59.4128 78.4264 60.373 78.0931 61.2552C77.7644 62.1364 77.2029 62.8873 76.4086 63.5079C75.6133 64.1238 74.6271 64.5546 73.4498 64.8004C72.2679 65.0472 71.1893 65.0475 70.214 64.8013C69.2378 64.5505 68.4227 64.087 67.7689 63.411C67.115 62.7349 66.6796 61.8777 66.4629 60.8395L64.5321 51.5929L67.5425 50.9643L69.4195 59.9537C69.5327 60.496 69.7516 60.9533 70.076 61.3258C70.4051 61.6972 70.8126 61.9579 71.2986 62.108C71.7847 62.258 72.3173 62.2726 72.8967 62.1516C73.4807 62.0296 73.963 61.8032 74.3438 61.4722C74.7291 61.1402 74.996 60.7386 75.1443 60.2675C75.2972 59.7954 75.3171 59.2882 75.2038 58.7459L73.3268 49.7565Z" fill="white"/>
<defs>
<filter id="filter0_b_515_56633" x="7.40234" y="7.96484" width="103.523" height="103.52" filterUnits="userSpaceOnUse" color-interpolation-filters="sRGB">
<feFlood flood-opacity="0" result="BackgroundImageFix"/>
<feGaussianBlur in="BackgroundImageFix" stdDeviation="1"/>
<feComposite in2="SourceAlpha" operator="in" result="effect1_backgroundBlur_515_56633"/>
<feBlend mode="normal" in="SourceGraphic" in2="effect1_backgroundBlur_515_56633" result="shape"/>
</filter>
<linearGradient id="paint0_linear_515_56633" x1="11.7046" y1="29.1192" x2="102.064" y2="94.6651" gradientUnits="userSpaceOnUse">
<stop offset="0.383993" stop-color="#ED8121"/>
<stop offset="1" stop-color="#4F5BF3"/>
</linearGradient>
<linearGradient id="paint1_linear_515_56633" x1="108.151" y1="89.0468" x2="11.7046" y2="28.1828" gradientUnits="userSpaceOnUse">
<stop stop-color="#ED8121"/>
<stop offset="1" stop-color="#4F5BF3"/>
</linearGradient>
</defs>
</svg>
