<svg width="119" height="119" viewBox="0 0 119 119" fill="none" xmlns="http://www.w3.org/2000/svg">
<g filter="url(#filter0_b_515_56663)">
<path d="M40.8134 15.6858C45.2986 9.8969 53.3235 8.22126 59.7505 11.7317L63.6631 13.8687C66.4173 15.373 69.5758 15.9702 72.689 15.5751L77.1118 15.0139C84.3767 14.092 91.236 18.5816 93.2983 25.6084L94.5539 29.8862C95.4376 32.8974 97.2488 35.553 99.7295 37.475L103.254 40.2056C109.043 44.6908 110.718 52.7157 107.208 59.1427L105.071 63.0554C103.567 65.8095 102.969 68.968 103.364 72.0812L103.926 76.504C104.848 83.7689 100.358 90.6282 93.3311 92.6905L89.0533 93.9461C86.0422 94.8298 83.3865 96.641 81.4645 99.1217L78.734 102.646C74.2487 108.435 66.2239 110.111 59.7969 106.6L55.8842 104.463C53.1301 102.959 49.9716 102.362 46.8584 102.757L42.4356 103.318C35.1706 104.24 28.3114 99.7502 26.249 92.7234L24.9935 88.4455C24.1097 85.4344 22.2986 82.7788 19.8179 80.8567L16.2936 78.1262C10.5047 73.6409 8.82905 65.6161 12.3394 59.1891L14.4765 55.2764C15.9808 52.5223 16.578 49.3638 16.1829 46.2506L15.6217 41.8278C14.6998 34.5629 19.1894 27.7036 26.2162 25.6412L30.494 24.3857C33.5052 23.5019 36.1608 21.6908 38.0828 19.2101L40.8134 15.6858Z" fill="url(#paint0_linear_515_56663)"/>
<path d="M40.8134 15.6858C45.2986 9.8969 53.3235 8.22126 59.7505 11.7317L63.6631 13.8687C66.4173 15.373 69.5758 15.9702 72.689 15.5751L77.1118 15.0139C84.3767 14.092 91.236 18.5816 93.2983 25.6084L94.5539 29.8862C95.4376 32.8974 97.2488 35.553 99.7295 37.475L103.254 40.2056C109.043 44.6908 110.718 52.7157 107.208 59.1427L105.071 63.0554C103.567 65.8095 102.969 68.968 103.364 72.0812L103.926 76.504C104.848 83.7689 100.358 90.6282 93.3311 92.6905L89.0533 93.9461C86.0422 94.8298 83.3865 96.641 81.4645 99.1217L78.734 102.646C74.2487 108.435 66.2239 110.111 59.7969 106.6L55.8842 104.463C53.1301 102.959 49.9716 102.362 46.8584 102.757L42.4356 103.318C35.1706 104.24 28.3114 99.7502 26.249 92.7234L24.9935 88.4455C24.1097 85.4344 22.2986 82.7788 19.8179 80.8567L16.2936 78.1262C10.5047 73.6409 8.82905 65.6161 12.3394 59.1891L14.4765 55.2764C15.9808 52.5223 16.578 49.3638 16.1829 46.2506L15.6217 41.8278C14.6998 34.5629 19.1894 27.7036 26.2162 25.6412L30.494 24.3857C33.5052 23.5019 36.1608 21.6908 38.0828 19.2101L40.8134 15.6858Z" stroke="url(#paint1_linear_515_56663)"/>
</g>
<path d="M30.0734 51.7978C29.4408 51.9299 28.8794 51.9573 28.3893 51.8802C27.8998 51.8063 27.4874 51.6554 27.152 51.4274C26.8167 51.1995 26.5592 50.9231 26.3797 50.5983L27.886 49.8827C27.9878 50.0138 28.1218 50.1365 28.2878 50.2508C28.4546 50.3683 28.663 50.4501 28.913 50.4961C29.1669 50.5447 29.4707 50.5321 29.8243 50.4583C30.3239 50.354 30.7122 50.146 30.9891 49.8342C31.2667 49.5257 31.3479 49.0957 31.2328 48.5442L30.9372 47.1279L30.8496 47.1462C30.7967 47.3469 30.7026 47.5612 30.5673 47.7892C30.4353 48.0165 30.2401 48.2249 29.9817 48.4142C29.7265 48.6029 29.3848 48.742 28.9565 48.8314C28.3823 48.9512 27.8334 48.9253 27.31 48.7535C26.7892 48.5778 26.3346 48.2495 25.9464 47.7684C25.5608 47.2835 25.283 46.6338 25.113 45.8195C24.9417 44.9986 24.9334 44.2775 25.0881 43.6561C25.2453 43.0307 25.5271 42.5233 25.9334 42.1338C26.3389 41.741 26.8289 41.4847 27.4031 41.3648C27.8411 41.2734 28.2168 41.2728 28.5303 41.3632C28.8463 41.4496 29.1103 41.579 29.3223 41.7514C29.5337 41.9206 29.7022 42.0869 29.8277 42.2503L29.925 42.23L29.667 40.9939L31.4044 40.6312L32.9901 48.2281C33.1235 48.8673 33.0814 49.428 32.8638 49.9102C32.6462 50.3924 32.2946 50.7925 31.8091 51.1105C31.3236 51.4285 30.745 51.6577 30.0734 51.7978ZM29.1596 47.3466C29.5327 47.2687 29.8317 47.1115 30.0566 46.875C30.2814 46.6384 30.4265 46.3356 30.4916 45.9665C30.5568 45.5974 30.5396 45.1744 30.44 44.6974C30.3418 44.227 30.1877 43.8291 29.9776 43.5039C29.7708 43.1781 29.5156 42.9452 29.2122 42.8054C28.9113 42.6617 28.5711 42.6294 28.1915 42.7086C27.7989 42.7906 27.4926 42.9612 27.2724 43.2204C27.0523 43.4797 26.9129 43.8017 26.8544 44.1863C26.7952 44.5677 26.8127 44.9839 26.9068 45.4349C27.0023 45.8924 27.1524 46.2792 27.3572 46.5953C27.5646 46.9076 27.8197 47.132 28.1224 47.2685C28.4278 47.4012 28.7735 47.4272 29.1596 47.3466ZM38.8785 43.5912L37.9745 39.2599L39.7362 38.8921L41.2965 46.3674L39.5883 46.7239L39.311 45.3953L39.2331 45.4116C39.1518 45.8653 38.9458 46.2655 38.6152 46.6122C38.2879 46.9581 37.8436 47.1897 37.2823 47.3068C36.7924 47.4091 36.3366 47.3908 35.9149 47.252C35.4957 47.1092 35.137 46.8506 34.8387 46.4761C34.5398 46.0983 34.328 45.611 34.2034 45.014L33.21 40.2543L34.9717 39.8866L35.9083 44.3737C36.0072 44.8474 36.2155 45.1967 36.5333 45.4215C36.8511 45.6464 37.2209 45.7148 37.6427 45.6267C37.9022 45.5726 38.1405 45.4568 38.3574 45.2795C38.5743 45.1022 38.7346 44.8723 38.8382 44.59C38.9443 44.3038 38.9578 43.9708 38.8785 43.5912ZM34.7957 38.7756C34.5393 38.8291 34.2981 38.7846 34.072 38.6422C33.8492 38.4991 33.712 38.3043 33.6605 38.0577C33.6064 37.7981 33.6535 37.5615 33.8018 37.3477C33.9528 37.1299 34.1564 36.9943 34.4127 36.9408C34.6755 36.886 34.9147 36.9291 35.1304 37.0703C35.3487 37.2076 35.4849 37.406 35.5391 37.6656C35.5906 37.9122 35.5444 38.1453 35.4006 38.3649C35.2601 38.5838 35.0585 38.7207 34.7957 38.7756ZM37.7157 38.1661C37.4594 38.2196 37.2182 38.1751 36.9921 38.0327C36.7692 37.8896 36.632 37.6948 36.5806 37.4482C36.5264 37.1886 36.5735 36.952 36.7219 36.7382C36.8728 36.5204 37.0764 36.3848 37.3327 36.3313C37.5955 36.2765 37.8348 36.3196 38.0505 36.4608C38.2687 36.5981 38.4049 36.7965 38.4591 37.0561C38.5106 37.3027 38.4644 37.5358 38.3207 37.7554C38.1801 37.9743 37.9785 38.1112 37.7157 38.1661ZM42.7895 35.6545L44.8699 45.6215L43.1081 45.9892L41.0277 36.0222L42.7895 35.6545ZM48.854 36.989L49.1384 38.3517L44.8411 39.2486L44.5567 37.886L48.854 36.989ZM45.2438 35.8736L47.0055 35.5058L48.4704 42.5236C48.5198 42.7605 48.5934 42.9347 48.6912 43.0463C48.7916 43.1541 48.9065 43.2181 49.036 43.2385C49.1656 43.2588 49.3033 43.2538 49.4493 43.2233C49.5596 43.2003 49.6585 43.1712 49.746 43.136C49.8367 43.1001 49.905 43.0706 49.951 43.0475L50.5353 44.3628C50.448 44.4149 50.3208 44.4787 50.1537 44.5542C49.9899 44.629 49.7837 44.6957 49.5353 44.7544C49.0967 44.8594 48.6854 44.8759 48.3013 44.8037C47.9165 44.7283 47.5878 44.5565 47.3151 44.2884C47.0457 44.0196 46.8638 43.6512 46.7696 43.1833L45.2438 35.8736ZM51.8877 44.1567L50.3274 36.6814L52.0891 36.3137L53.6494 43.789L51.8877 44.1567ZM50.9917 35.4356C50.7126 35.4939 50.4533 35.4515 50.2135 35.3086C49.9731 35.1624 49.8254 34.9579 49.7706 34.6951C49.715 34.429 49.7685 34.1825 49.9311 33.9556C50.093 33.7255 50.3134 33.5812 50.5925 33.523C50.8747 33.4641 51.1344 33.5081 51.3716 33.6549C51.6114 33.7979 51.759 34.0024 51.8146 34.2684C51.8694 34.5312 51.8159 34.7777 51.654 35.0079C51.4947 35.2341 51.2739 35.3767 50.9917 35.4356ZM59.3296 45.6912C58.697 45.8233 58.1356 45.8507 57.6455 45.7736C57.156 45.6997 56.7436 45.5488 56.4082 45.3208C56.0729 45.0929 55.8154 44.8165 55.6359 44.4917L57.1422 43.776C57.244 43.9071 57.378 44.0299 57.544 44.1442C57.7108 44.2617 57.9192 44.3435 58.1692 44.3895C58.4231 44.4381 58.7269 44.4255 59.0805 44.3517C59.5801 44.2474 59.9684 44.0393 60.2453 43.7276C60.5229 43.4191 60.6041 42.9891 60.489 42.4375L60.1934 41.0213L60.1058 41.0396C60.0529 41.2403 59.9588 41.4546 59.8235 41.6826C59.6915 41.9099 59.4963 42.1182 59.2379 42.3076C58.9827 42.4963 58.641 42.6354 58.2127 42.7248C57.6385 42.8446 57.0896 42.8187 56.5662 42.6469C56.0454 42.4712 55.5908 42.1428 55.2026 41.6618C54.817 41.1769 54.5392 40.5272 54.3692 39.7129C54.1979 38.892 54.1896 38.1709 54.3443 37.5495C54.5015 36.9241 54.7833 36.4167 55.1896 36.0272C55.5951 35.6344 56.0851 35.3781 56.6593 35.2582C57.0973 35.1668 57.473 35.1662 57.7865 35.2566C58.1025 35.343 58.3665 35.4724 58.5785 35.6448C58.7899 35.814 58.9584 35.9803 59.0839 36.1437L59.1812 36.1234L58.9232 34.8872L60.6606 34.5246L62.2463 42.1215C62.3797 42.7607 62.3376 43.3214 62.12 43.8036C61.9024 44.2858 61.5508 44.6859 61.0653 45.0039C60.5798 45.3219 60.0012 45.551 59.3296 45.6912ZM58.4158 41.24C58.7889 41.1621 59.0879 41.0049 59.3128 40.7684C59.5376 40.5318 59.6827 40.229 59.7478 39.8599C59.813 39.4908 59.7958 39.0677 59.6962 38.5908C59.598 38.1204 59.4439 37.7225 59.2338 37.3973C59.027 37.0715 58.7718 36.8386 58.4684 36.6988C58.1675 36.5551 57.8273 36.5228 57.4477 36.602C57.0551 36.684 56.7488 36.8546 56.5286 37.1138C56.3085 37.3731 56.1691 37.695 56.1106 38.0797C56.0514 38.4611 56.0689 38.8773 56.163 39.3283C56.2585 39.7858 56.4086 40.1726 56.6135 40.4887C56.8208 40.801 57.0759 41.0253 57.3786 41.1619C57.684 41.2946 58.0297 41.3206 58.4158 41.24ZM67.5037 40.8972L65.4233 30.9302L67.1851 30.5624L67.9632 34.2903L68.0362 34.2751C68.0891 34.0745 68.177 33.8547 68.2998 33.6157C68.4219 33.3735 68.6089 33.15 68.8607 32.9451C69.1118 32.7369 69.4563 32.5871 69.8943 32.4957C70.4718 32.3751 71.0234 32.4141 71.549 32.6125C72.0771 32.807 72.5374 33.1629 72.9298 33.6803C73.3248 34.1937 73.609 34.8658 73.7823 35.6963C73.9537 36.5172 73.9646 37.2429 73.8152 37.8733C73.6658 38.5038 73.3906 39.0184 72.9896 39.4169C72.5886 39.8155 72.0945 40.0761 71.5072 40.1987C71.079 40.2881 70.7088 40.2908 70.3967 40.207C70.0847 40.1232 69.8217 39.9986 69.6077 39.8333C69.3963 39.6641 69.2247 39.4985 69.0926 39.3365L68.9904 39.3578L69.2363 40.5356L67.5037 40.8972ZM68.4512 36.7989C68.5522 37.2824 68.7087 37.6915 68.9208 38.0265C69.1361 38.3607 69.3949 38.603 69.6972 38.7532C70.0019 38.8995 70.3409 38.9337 70.714 38.8558C71.1033 38.7746 71.4077 38.6027 71.6272 38.3402C71.846 38.0745 71.984 37.746 72.0411 37.3549C72.1009 36.9598 72.082 36.5287 71.9845 36.0615C71.8876 35.5975 71.7351 35.1993 71.5269 34.867C71.3187 34.5346 71.0619 34.2936 70.7564 34.1441C70.451 33.9945 70.1019 33.9607 69.7094 34.0427C69.333 34.1212 69.0341 34.2869 68.8126 34.5397C68.5911 34.7924 68.4495 35.1115 68.3877 35.4968C68.3292 35.8815 68.3503 36.3155 68.4512 36.7989ZM76.0582 39.1116L74.4979 31.6364L76.2596 31.2686L77.8199 38.7439L76.0582 39.1116ZM75.1622 30.3905C74.8831 30.4488 74.6237 30.4064 74.384 30.2635C74.1436 30.1173 73.9959 29.9128 73.9411 29.65C73.8855 29.3839 73.939 29.1375 74.1016 28.9105C74.2635 28.6804 74.4839 28.5362 74.7629 28.4779C75.0452 28.419 75.3049 28.463 75.5421 28.6099C75.7819 28.7528 75.9295 28.9573 75.9851 29.2233C76.0399 29.4862 75.9864 29.7326 75.8245 29.9628C75.6652 30.189 75.4444 30.3316 75.1622 30.3905ZM84.3919 31.6332L82.8224 32.1436C82.7431 31.9909 82.6318 31.855 82.4885 31.7359C82.3483 31.6162 82.1751 31.5321 81.9686 31.4838C81.7621 31.4355 81.5226 31.4398 81.2501 31.4967C80.8835 31.5732 80.5918 31.717 80.3752 31.9281C80.1618 32.1386 80.0831 32.37 80.1392 32.6224C80.1813 32.8405 80.2977 33.0007 80.4884 33.1031C80.6823 33.2048 80.9782 33.2599 81.3761 33.2682L82.7081 33.2746C83.4472 33.2795 84.0232 33.4115 84.4362 33.6706C84.8525 33.9291 85.1181 34.3257 85.2331 34.8603C85.328 35.3315 85.2768 35.7755 85.0794 36.1926C84.8846 36.6057 84.5681 36.9629 84.1299 37.2643C83.6918 37.5657 83.1612 37.7814 82.5382 37.9114C81.6233 38.1024 80.8469 38.0647 80.2089 37.7983C79.5703 37.5287 79.1256 37.0612 78.875 36.3957L80.5584 35.8716C80.7067 36.1928 80.9253 36.413 81.2143 36.5321C81.5032 36.6512 81.8505 36.6685 82.2561 36.5838C82.6746 36.4965 82.9925 36.3404 83.2096 36.1156C83.4301 35.8901 83.5139 35.6509 83.461 35.3978C83.4163 35.1837 83.2967 35.0241 83.1021 34.9192C82.9108 34.8135 82.6353 34.7593 82.2759 34.7564L80.9449 34.7549C80.1967 34.7553 79.6138 34.6146 79.196 34.3327C78.7776 34.0476 78.5132 33.6322 78.4026 33.0864C78.3032 32.6264 78.3448 32.2013 78.5275 31.811C78.7127 31.4168 79.0131 31.0799 79.4287 30.8001C79.8469 30.5165 80.3545 30.3123 80.9515 30.1877C81.8275 30.0049 82.5559 30.0475 83.1367 30.3157C83.7207 30.5832 84.1391 31.0223 84.3919 31.6332ZM25.9985 58.5687L28.0789 68.5358L26.2734 68.9126L24.5597 60.7025L24.5013 60.7147L22.481 62.6905L22.1356 61.0358L24.2806 58.9273L25.9985 58.5687ZM32.5832 57.1943L34.6636 67.1614L32.858 67.5382L31.1443 59.3281L31.0859 59.3403L29.0656 61.3161L28.7202 59.6614L30.8652 57.5529L32.5832 57.1943ZM37.7726 66.6241C37.4774 66.6858 37.2026 66.6348 36.9484 66.4711C36.6942 66.3075 36.5375 66.0761 36.4785 65.7769C36.4143 65.4856 36.4659 65.2141 36.6335 64.9625C36.801 64.7108 37.0324 64.5541 37.3277 64.4925C37.6132 64.4329 37.8831 64.4849 38.1373 64.6486C38.3948 64.8115 38.5556 65.0387 38.6198 65.33C38.6579 65.5286 38.6436 65.7195 38.5768 65.9027C38.5134 66.0852 38.4107 66.2421 38.2688 66.3733C38.1294 66.5006 37.964 66.5842 37.7726 66.6241ZM43.956 65.4198C43.1546 65.5871 42.4245 65.5279 41.7655 65.2422C41.1092 64.9526 40.5466 64.4555 40.0779 63.7509C39.6118 63.0423 39.2653 62.1446 39.0384 61.0577C38.8148 59.9702 38.7759 59.0133 38.9217 58.1872C39.0701 57.3572 39.3878 56.6814 39.8749 56.1599C40.3652 55.6377 41.0094 55.2933 41.8075 55.1267C42.6057 54.9601 43.3339 55.0181 43.9921 55.3005C44.6504 55.583 45.2119 56.0752 45.6767 56.7772C46.1447 57.4786 46.4919 58.3711 46.718 59.4548C46.9456 60.5449 46.9858 61.5082 46.8388 62.3448C46.6943 63.1774 46.3773 63.8564 45.8876 64.3818C45.4013 64.9065 44.7574 65.2526 43.956 65.4198ZM43.6381 63.8965C44.261 63.7665 44.6885 63.3573 44.9207 62.6689C45.1554 61.9766 45.1478 61.0319 44.8979 59.8347C44.7327 59.043 44.5111 58.3952 44.2332 57.8911C43.9553 57.3871 43.6371 57.0303 43.2785 56.8207C42.9192 56.6079 42.5335 56.5445 42.1214 56.6306C41.5017 56.7599 41.0762 57.1704 40.8447 57.862C40.6125 58.5504 40.6188 59.4886 40.8634 60.6768C41.0261 61.4724 41.2451 62.1241 41.5204 62.6321C41.799 63.1394 42.1179 63.4994 42.4772 63.7122C42.8358 63.9218 43.2228 63.9832 43.6381 63.8965ZM52.9787 63.4807C52.2778 63.6269 51.6299 63.6369 51.0347 63.5106C50.4427 63.3836 49.9447 63.1388 49.5406 62.7762C49.1365 62.4137 48.8661 61.9538 48.7295 61.3965L50.5594 61.0146C50.6318 61.2805 50.7701 61.4971 50.9743 61.6644C51.1779 61.8284 51.4258 61.9375 51.7181 61.9916C52.0104 62.0457 52.3237 62.0379 52.6579 61.9681C53.0148 61.8936 53.3182 61.766 53.5683 61.5851C53.8176 61.401 53.9968 61.1808 54.1058 60.9244C54.2148 60.668 54.2372 60.3942 54.1731 60.1029C54.1133 59.8004 53.9799 59.5507 53.7729 59.3535C53.5658 59.1563 53.2979 59.0243 52.969 58.9575C52.6434 58.89 52.2698 58.9003 51.848 58.9884L50.9671 59.1722L50.6766 57.7804L51.5575 57.5965C51.9046 57.524 52.1955 57.4007 52.43 57.2265C52.6677 57.0516 52.8385 56.8398 52.9424 56.5913C53.0456 56.3395 53.0654 56.0696 53.0019 55.7815C52.9462 55.4986 52.8318 55.2668 52.6587 55.0863C52.4882 54.9018 52.2739 54.7755 52.0159 54.7075C51.7612 54.6388 51.4781 54.6369 51.1666 54.7019C50.8616 54.7656 50.5909 54.8797 50.3543 55.0442C50.1178 55.2086 49.9414 55.4097 49.8251 55.6473C49.7081 55.8816 49.6738 56.1393 49.7223 56.4204L47.9849 56.783C47.8814 56.2223 47.9398 55.6988 48.1599 55.2127C48.3827 54.7227 48.7289 54.305 49.1986 53.9598C49.6676 53.6114 50.2249 53.3698 50.8706 53.235C51.5357 53.0962 52.1393 53.1006 52.6813 53.2481C53.226 53.3918 53.6766 53.6448 54.0332 54.0071C54.3899 54.3694 54.621 54.8036 54.7267 55.3098C54.8471 55.8704 54.7798 56.3754 54.5249 56.8247C54.2732 57.2734 53.8902 57.6124 53.376 57.8416L53.3923 57.9195C54.1134 57.8705 54.7045 58.018 55.1657 58.3619C55.6294 58.7019 55.9247 59.1837 56.0514 59.8073C56.1679 60.3653 56.1132 60.8982 55.8874 61.4058C55.6641 61.9095 55.3011 62.3441 54.7984 62.7098C54.299 63.0747 53.6924 63.3317 52.9787 63.4807ZM59.1326 62.1657C58.8373 62.2273 58.5626 62.1763 58.3084 62.0127C58.0541 61.8491 57.8975 61.6177 57.8384 61.3185C57.7742 61.0272 57.8259 60.7557 57.9935 60.504C58.161 60.2523 58.3924 60.0957 58.6877 60.0341C58.9732 59.9745 59.243 60.0265 59.4973 60.1901C59.7548 60.3531 59.9156 60.5802 59.9798 60.8715C60.0179 61.0701 60.0035 61.261 59.9368 61.4442C59.8733 61.6268 59.7706 61.7837 59.6287 61.9149C59.4894 62.0421 59.324 62.1257 59.1326 62.1657ZM61.9804 61.4595L61.7081 60.1553L64.4603 56.0409C64.7215 55.6377 64.9353 55.2832 65.1018 54.9776C65.2682 54.672 65.3812 54.386 65.4407 54.1197C65.5003 53.8533 65.5012 53.5822 65.4437 53.3065C65.378 52.9918 65.2504 52.7374 65.0609 52.5433C64.8708 52.346 64.6379 52.2117 64.3623 52.1406C64.0868 52.0695 63.79 52.0671 63.4721 52.1334C63.1444 52.2018 62.8715 52.3299 62.6533 52.5176C62.4345 52.7021 62.2827 52.9319 62.1979 53.2069C62.1163 53.4813 62.1111 53.7888 62.1822 54.1294L60.4643 54.488C60.3322 53.8553 60.3618 53.2753 60.5531 52.7478C60.7443 52.2203 61.0662 51.7756 61.5189 51.4136C61.9747 51.051 62.532 50.8009 63.1906 50.6635C63.859 50.524 64.4723 50.5263 65.0306 50.6705C65.5889 50.8147 66.0529 51.075 66.4227 51.4515C66.7957 51.8274 67.0404 52.2943 67.1569 52.8524C67.2348 53.2255 67.2399 53.607 67.1724 53.9969C67.1048 54.3869 66.9366 54.8384 66.6679 55.3516C66.4024 55.8641 66.0119 56.4992 65.4963 57.2569L64.143 59.3626L64.1572 59.4308L68.4983 58.5247L68.8132 60.0333L61.9804 61.4595ZM74.216 59.1037C73.4146 59.271 72.6844 59.2118 72.0255 58.9261C71.3691 58.6365 70.8066 58.1393 70.3379 57.4347C69.8717 56.7262 69.5252 55.8285 69.2983 54.7416C69.0747 53.654 69.0358 52.6972 69.1817 51.8711C69.3301 51.0411 69.6478 50.3653 70.1348 49.8438C70.6251 49.3216 71.2694 48.9772 72.0675 48.8106C72.8656 48.644 73.5938 48.7019 74.2521 48.9844C74.9103 49.2668 75.4718 49.7591 75.9367 50.4611C76.4047 51.1625 76.7518 52.055 76.978 53.1386C77.2056 54.2288 77.2458 55.1921 77.0988 56.0286C76.9543 56.8612 76.6372 57.5402 76.1476 58.0657C75.6612 58.5904 75.0173 58.9364 74.216 59.1037ZM73.898 57.5804C74.5209 57.4504 74.9485 57.0412 75.1806 56.3528C75.4153 55.6605 75.4078 54.7158 75.1579 53.5186C74.9926 52.7269 74.7711 52.0791 74.4932 51.575C74.2153 51.071 73.897 50.7142 73.5384 50.5046C73.1791 50.2918 72.7934 50.2284 72.3814 50.3144C71.7617 50.4438 71.3361 50.8543 71.1047 51.5459C70.8725 52.2343 70.8787 53.1725 71.1234 54.3607C71.286 55.1562 71.505 55.808 71.7803 56.316C72.0589 56.8233 72.3778 57.1833 72.7371 57.3961C73.0958 57.6057 73.4827 57.6671 73.898 57.5804ZM79.6331 57.7749L79.3609 56.4706L82.1131 52.3563C82.3743 51.953 82.5881 51.5986 82.7545 51.293C82.921 50.9874 83.034 50.7014 83.0935 50.435C83.153 50.1687 83.154 49.8976 83.0964 49.6218C83.0307 49.3071 82.9032 49.0527 82.7137 48.8587C82.5235 48.6613 82.2906 48.5271 82.0151 48.456C81.7395 48.3848 81.4428 48.3824 81.1248 48.4488C80.7971 48.5172 80.5242 48.6453 80.3061 48.833C80.0873 49.0175 79.9355 49.2472 79.8507 49.5223C79.7691 49.7966 79.7639 50.1041 79.835 50.4448L78.117 50.8034C77.985 50.1707 78.0146 49.5906 78.2058 49.0632C78.397 48.5357 78.719 48.091 79.1716 47.729C79.6275 47.3664 80.1848 47.1163 80.8434 46.9788C81.5117 46.8393 82.1251 46.8417 82.6834 46.9858C83.2416 47.13 83.7057 47.3904 84.0754 47.7669C84.4484 48.1427 84.6932 48.6097 84.8097 49.1677C84.8876 49.5408 84.8927 49.9224 84.8251 50.3123C84.7575 50.7022 84.5894 51.1538 84.3207 51.667C84.0552 52.1795 83.6647 52.8146 83.149 53.5723L81.7958 55.678L81.81 55.7461L86.1511 54.84L86.466 56.3487L79.6331 57.7749ZM87.3648 54.2312L87.0651 52.7955L89.8996 45.2308L91.0968 44.9809L91.5234 47.0249L90.7934 47.1773L88.8881 52.2829L88.9043 52.3608L94.8076 51.1286L95.1175 52.613L87.3648 54.2312ZM92.5056 55.0881L92.0281 52.8007L91.9135 52.1542L90.4446 45.117L92.148 44.7614L94.2284 54.7285L92.5056 55.0881Z" fill="white"/>
<path d="M47.987 85.5046L48.4776 87.8545L41.9842 89.2104L41.4935 86.8605L47.987 85.5046ZM51.8132 93.3614L51.3603 91.1923L55.4487 85.4412C55.7926 84.9341 56.0757 84.4831 56.298 84.0885C56.525 83.6928 56.6816 83.3191 56.7677 82.9674C56.8529 82.611 56.8563 82.2451 56.778 81.8697C56.6909 81.4525 56.5208 81.1132 56.2679 80.8516C56.014 80.5853 55.7056 80.4055 55.3426 80.312C54.9787 80.2138 54.5882 80.2083 54.171 80.2954C53.7353 80.3864 53.3737 80.5538 53.086 80.7977C52.7983 81.0415 52.6008 81.3464 52.4934 81.7123C52.386 82.0781 52.3797 82.4881 52.4745 82.9424L49.6171 83.539C49.4226 82.6074 49.4646 81.7546 49.7432 80.9805C50.0217 80.2065 50.5018 79.5524 51.1836 79.0183C51.8653 78.4841 52.7021 78.1135 53.694 77.9064C54.7136 77.6935 55.639 77.6889 56.4699 77.8927C57.3046 78.0909 57.9991 78.4634 58.5534 79.0103C59.1078 79.5572 59.4706 80.2409 59.6419 81.0612C59.7542 81.5989 59.7584 82.1518 59.6546 82.7201C59.5553 83.2874 59.3037 83.947 58.8996 84.6988C58.4945 85.4461 57.8959 86.3668 57.1038 87.4609L55.4504 89.932L55.4707 90.0293L61.4497 88.7808L61.9636 91.242L51.8132 93.3614ZM69.793 89.9336C68.5962 90.1787 67.5058 90.0992 66.5218 89.6952C65.5424 89.2903 64.7053 88.5823 64.0105 87.5714C63.3203 86.5594 62.815 85.2743 62.4944 83.7161C62.1702 82.1634 62.1233 80.7922 62.3538 79.6026C62.5889 78.4119 63.0756 77.4421 63.8141 76.6929C64.5561 75.9382 65.5228 75.4365 66.7139 75.1877C67.9051 74.939 68.9894 75.0125 69.9669 75.4082C70.949 75.8029 71.786 76.4988 72.4778 77.4958C73.1688 78.4883 73.674 79.7613 73.9936 81.315C74.3197 82.8769 74.3667 84.2601 74.1345 85.4647C73.907 86.6682 73.4254 87.6515 72.6899 88.4145C71.9544 89.1776 70.9888 89.6839 69.793 89.9336ZM69.2718 87.4377C70.0875 87.2674 70.6531 86.7213 70.9685 85.7993C71.2838 84.8773 71.2679 83.5964 70.9207 81.9566C70.6952 80.8767 70.3962 80.0007 70.0237 79.3288C69.6558 78.6559 69.2326 78.1807 68.7538 77.9034C68.2797 77.6251 67.7716 77.5426 67.2293 77.6558C66.4182 77.8252 65.854 78.3662 65.5367 79.279C65.2194 80.1917 65.2273 81.4573 65.5604 83.0759C65.7888 84.1697 66.0884 85.06 66.4591 85.7468C66.8336 86.4281 67.2606 86.9097 67.7403 87.1916C68.219 87.4689 68.7295 87.551 69.2718 87.4377ZM89.391 82.7288L89.2343 81.978C89.1152 81.4079 89.1264 80.859 89.2677 80.3313C89.4127 79.798 89.6869 79.3392 90.0904 78.9551C90.4976 78.5653 91.0372 78.3003 91.7092 78.16C92.3906 78.0177 92.993 78.0419 93.5165 78.2324C94.0446 78.4221 94.4772 78.7332 94.8142 79.1659C95.1549 79.5929 95.3852 80.0938 95.5053 80.6686L95.662 81.4194C95.7811 81.9895 95.7704 82.5407 95.63 83.0731C95.4887 83.6008 95.214 84.0572 94.8059 84.4423C94.3987 84.8321 93.8591 85.0971 93.1871 85.2374C92.5057 85.3797 91.9028 85.3532 91.3784 85.158C90.8549 84.9674 90.4228 84.6586 90.0821 84.2315C89.7404 83.7998 89.5101 83.2989 89.391 82.7288ZM91.2574 81.5555L91.4142 82.3064C91.4829 82.6355 91.6265 82.9296 91.8451 83.1887C92.0683 83.4468 92.3907 83.5318 92.8125 83.4437C93.2343 83.3557 93.4917 83.152 93.5846 82.8327C93.6822 82.5124 93.6957 82.1831 93.625 81.8448L93.4682 81.0939C93.3976 80.7556 93.2576 80.4559 93.0483 80.1948C92.839 79.9338 92.5165 79.8488 92.0809 79.9398C91.6637 80.0269 91.4045 80.2334 91.3033 80.5592C91.202 80.8851 91.1867 81.2172 91.2574 81.5555ZM80.3828 76.1064L80.226 75.3556C80.106 74.7809 80.1189 74.2292 80.2649 73.7005C80.4099 73.1671 80.6842 72.7084 81.0876 72.3243C81.4958 71.9392 82.0312 71.6774 82.694 71.539C83.38 71.3958 83.9847 71.4195 84.5082 71.61C85.0317 71.8006 85.4643 72.1118 85.8059 72.5435C86.1466 72.9705 86.377 73.4714 86.497 74.0462L86.6538 74.797C86.7738 75.3717 86.7608 75.9234 86.6148 76.4521C86.4735 76.9799 86.1988 77.4363 85.7906 77.8214C85.3862 78.2009 84.8456 78.4613 84.1689 78.6026C83.4922 78.7439 82.8898 78.7197 82.3617 78.5301C81.8372 78.3349 81.4051 78.0261 81.0654 77.6036C80.7293 77.1756 80.5018 76.6765 80.3828 76.1064ZM82.263 74.9302L82.4198 75.6811C82.4904 76.0194 82.6346 76.3158 82.8521 76.5703C83.0744 76.8238 83.3894 76.908 83.7973 76.8228C84.2237 76.7338 84.4834 76.5296 84.5763 76.2103C84.6739 75.89 84.6874 75.5607 84.6167 75.2224L84.4599 74.4715C84.3893 74.1332 84.2493 73.8335 84.04 73.5724C83.8307 73.3114 83.5059 73.2269 83.0656 73.3188C82.6531 73.4049 82.3991 73.6128 82.3034 73.9423C82.2078 74.2719 82.1943 74.6012 82.263 74.9302ZM83.5593 86.7326L90.3751 70.4503L92.1966 70.0699L85.3808 86.3523L83.5593 86.7326Z" fill="white"/>
<defs>
<filter id="filter0_b_515_56663" x="8.01172" y="7.40625" width="103.523" height="103.52" filterUnits="userSpaceOnUse" color-interpolation-filters="sRGB">
<feFlood flood-opacity="0" result="BackgroundImageFix"/>
<feGaussianBlur in="BackgroundImageFix" stdDeviation="1"/>
<feComposite in2="SourceAlpha" operator="in" result="effect1_backgroundBlur_515_56663"/>
<feBlend mode="normal" in="SourceGraphic" in2="effect1_backgroundBlur_515_56663" result="shape"/>
</filter>
<linearGradient id="paint0_linear_515_56663" x1="12.314" y1="28.5606" x2="102.674" y2="94.1065" gradientUnits="userSpaceOnUse">
<stop offset="0.383993" stop-color="#ED8121"/>
<stop offset="1" stop-color="#4F5BF3"/>
</linearGradient>
<linearGradient id="paint1_linear_515_56663" x1="108.76" y1="88.4882" x2="12.314" y2="27.6242" gradientUnits="userSpaceOnUse">
<stop stop-color="#ED8121"/>
<stop offset="1" stop-color="#4F5BF3"/>
</linearGradient>
</defs>
</svg>
