<svg width="271" height="146" viewBox="0 0 271 146" fill="none" xmlns="http://www.w3.org/2000/svg">
<g clip-path="url(#clip0_5_178)">
<path d="M37.0993 56.0582C40.312 56.7836 42.851 58.3899 44.7164 60.8771C46.6336 63.3125 47.5922 66.1106 47.5922 69.2714C47.5922 73.935 45.9859 77.588 42.7733 80.2307C39.5606 82.8733 35.0526 84.1947 29.2491 84.1947H2.12305V29.3984H28.3941C33.9903 29.3984 38.3688 30.642 41.5297 33.1292C44.7423 35.6165 46.3486 39.1141 46.3486 43.6221C46.3486 46.8348 45.4937 49.5293 43.7837 51.7056C42.1256 53.83 39.8974 55.2809 37.0993 56.0582ZM17.3571 51.1615H25.0519C28.8864 51.1615 30.8036 49.5811 30.8036 46.4202C30.8036 43.1558 28.8864 41.5236 25.0519 41.5236H17.3571V51.1615ZM26.2178 71.9141C30.0523 71.9141 31.9695 70.3078 31.9695 67.0951C31.9695 65.437 31.4513 64.1675 30.415 63.2866C29.4305 62.4057 28.0055 61.9653 26.1401 61.9653H17.3571V71.9141H26.2178Z" fill="white"/>
<path d="M95.9296 61.8877C95.9296 63.0794 95.8519 64.2712 95.6964 65.463H66.8604C67.0158 67.8466 67.6635 69.6343 68.8035 70.826C69.9953 71.966 71.498 72.536 73.3116 72.536C75.8506 72.536 77.6642 71.396 78.7523 69.1161H94.9969C94.3233 72.1215 93.0019 74.8159 91.0329 77.1995C89.1157 79.5313 86.6803 81.3708 83.7267 82.718C80.7732 84.0652 77.5087 84.7388 73.9334 84.7388C69.6326 84.7388 65.7981 83.8321 62.43 82.0185C59.1138 80.2049 56.497 77.614 54.5798 74.2459C52.7144 70.8779 51.7817 66.9139 51.7817 62.354C51.7817 57.7941 52.7144 53.8561 54.5798 50.5398C56.4452 47.1717 59.036 44.5809 62.3523 42.7673C65.7204 40.9537 69.5808 40.0469 73.9334 40.0469C78.2342 40.0469 82.0427 40.9278 85.359 42.6895C88.6752 44.4513 91.2661 46.9903 93.1315 50.3066C94.9969 53.5711 95.9296 57.4314 95.9296 61.8877ZM80.3845 58.0791C80.3845 56.2137 79.7627 54.7628 78.5191 53.7265C77.2755 52.6384 75.721 52.0943 73.8556 52.0943C71.9902 52.0943 70.4616 52.6125 69.2699 53.6488C68.0781 54.6333 67.3008 56.1101 66.9381 58.0791H80.3845Z" fill="white"/>
<path d="M120.74 84.7388C116.802 84.7388 113.279 84.0911 110.17 82.7957C107.112 81.4485 104.677 79.6349 102.864 77.355C101.102 75.0232 100.117 72.4065 99.9102 69.5047H114.678C114.885 70.9038 115.533 71.9919 116.621 72.7692C117.709 73.5464 119.056 73.9351 120.663 73.9351C121.906 73.9351 122.891 73.676 123.616 73.1578C124.342 72.6396 124.704 71.966 124.704 71.1369C124.704 70.0488 124.108 69.2456 122.917 68.7275C121.725 68.2093 119.756 67.6393 117.009 67.0175C113.9 66.3957 111.31 65.6962 109.237 64.9189C107.164 64.1417 105.351 62.8722 103.796 61.1104C102.294 59.3486 101.542 56.9651 101.542 53.9597C101.542 51.3688 102.242 49.0371 103.641 46.9644C105.04 44.8399 107.087 43.1559 109.781 41.9123C112.527 40.6687 115.818 40.0469 119.652 40.0469C125.352 40.0469 129.834 41.4459 133.099 44.244C136.363 47.0421 138.254 50.7211 138.773 55.281H125.015C124.756 53.882 124.134 52.8197 123.15 52.0943C122.217 51.317 120.948 50.9284 119.341 50.9284C118.098 50.9284 117.139 51.1616 116.465 51.6279C115.844 52.0943 115.533 52.742 115.533 53.5711C115.533 54.6074 116.129 55.4106 117.32 55.9805C118.512 56.4987 120.429 57.0428 123.072 57.6128C126.233 58.2864 128.85 59.0377 130.922 59.8668C133.047 60.6959 134.886 62.0431 136.441 63.9085C138.047 65.7221 138.85 68.2093 138.85 71.3701C138.85 73.9091 138.099 76.1891 136.596 78.2099C135.145 80.2308 133.047 81.8371 130.3 83.0289C127.606 84.1689 124.419 84.7388 120.74 84.7388Z" fill="white"/>
<path d="M172.067 71.2149V84.195H165.46C154.32 84.195 148.749 78.6765 148.749 67.6395V53.2604H143.386V40.5912H148.749V30.0205H164.061V40.5912H171.989V53.2604H164.061V67.8727C164.061 69.0645 164.32 69.9195 164.838 70.4376C165.408 70.9558 166.341 71.2149 167.636 71.2149H172.067Z" fill="white"/>
<path d="M220.715 61.8877C220.715 63.0794 220.637 64.2712 220.482 65.463H191.646C191.801 67.8466 192.449 69.6343 193.589 70.826C194.781 71.966 196.283 72.536 198.097 72.536C200.636 72.536 202.449 71.396 203.538 69.1161H219.782C219.109 72.1215 217.787 74.8159 215.818 77.1995C213.901 79.5313 211.466 81.3708 208.512 82.718C205.558 84.0652 202.294 84.7388 198.719 84.7388C194.418 84.7388 190.583 83.8321 187.215 82.0185C183.899 80.2049 181.282 77.614 179.365 74.2459C177.5 70.8779 176.567 66.9139 176.567 62.354C176.567 57.7941 177.5 53.8561 179.365 50.5398C181.23 47.1717 183.821 44.5809 187.138 42.7673C190.506 40.9537 194.366 40.0469 198.719 40.0469C203.019 40.0469 206.828 40.9278 210.144 42.6895C213.461 44.4513 216.051 46.9903 217.917 50.3066C219.782 53.5711 220.715 57.4314 220.715 61.8877ZM205.17 58.0791C205.17 56.2137 204.548 54.7628 203.304 53.7265C202.061 52.6384 200.506 52.0943 198.641 52.0943C196.776 52.0943 195.247 52.6125 194.055 53.6488C192.863 54.6333 192.086 56.1101 191.723 58.0791H205.17Z" fill="white"/>
<path d="M37.0995 108.691C36.2187 107.24 35.001 106.126 33.4465 105.349C31.9438 104.572 30.1561 104.183 28.0834 104.183C24.249 104.183 21.2177 105.427 18.9896 107.914C16.8133 110.401 15.7251 113.743 15.7251 117.94C15.7251 122.656 16.891 126.257 19.2228 128.744C21.6063 131.18 25.0521 132.397 29.5602 132.397C34.8973 132.397 38.7059 129.988 40.9858 125.169H25.6739V114.21H54.1213V128.977C52.9296 131.879 51.1678 134.6 48.836 137.139C46.5561 139.678 43.6544 141.776 40.1308 143.434C36.6073 145.041 32.5915 145.844 28.0834 145.844C22.5908 145.844 17.7201 144.678 13.4711 142.346C9.27393 139.963 6.00947 136.672 3.67772 132.475C1.39778 128.226 0.257812 123.381 0.257812 117.94C0.257812 112.552 1.39778 107.758 3.67772 103.561C6.00947 99.3127 9.27393 96.0223 13.4711 93.6905C17.6682 91.307 22.5131 90.1152 28.0057 90.1152C34.8973 90.1152 40.5972 91.7733 45.1052 95.0896C49.6133 98.4059 52.4114 102.94 53.4995 108.691H37.0995Z" fill="url(#paint0_linear_5_178)"/>
<path d="M58.4614 123.614C58.4614 119.106 59.2646 115.168 60.8709 111.8C62.529 108.432 64.7571 105.841 67.5552 104.028C70.4052 102.214 73.566 101.307 77.0377 101.307C80.0431 101.307 82.6339 101.903 84.8102 103.095C86.9865 104.287 88.6706 105.893 89.8624 107.914V101.851H105.096V145.455H89.8624V139.393C88.6706 141.413 86.9606 143.02 84.7325 144.212C82.5562 145.403 79.9913 145.999 77.0377 145.999C73.566 145.999 70.4052 145.092 67.5552 143.279C64.7571 141.465 62.529 138.874 60.8709 135.506C59.2646 132.086 58.4614 128.122 58.4614 123.614ZM89.8624 123.614C89.8624 120.816 89.0851 118.614 87.5306 117.008C86.0279 115.401 84.1625 114.598 81.9344 114.598C79.6545 114.598 77.7631 115.401 76.2605 117.008C74.7578 118.562 74.0064 120.765 74.0064 123.614C74.0064 126.413 74.7578 128.641 76.2605 130.299C77.7631 131.905 79.6545 132.708 81.9344 132.708C84.1625 132.708 86.0279 131.905 87.5306 130.299C89.0851 128.692 89.8624 126.464 89.8624 123.614Z" fill="url(#paint1_linear_5_178)"/>
<path d="M132.354 145.999C128.415 145.999 124.892 145.352 121.783 144.056C118.726 142.709 116.29 140.895 114.477 138.615C112.715 136.284 111.73 133.667 111.523 130.765H126.291C126.498 132.164 127.146 133.252 128.234 134.03C129.322 134.807 130.669 135.195 132.276 135.195C133.519 135.195 134.504 134.936 135.229 134.418C135.955 133.9 136.318 133.226 136.318 132.397C136.318 131.309 135.722 130.506 134.53 129.988C133.338 129.47 131.369 128.9 128.623 128.278C125.514 127.656 122.923 126.957 120.85 126.179C118.778 125.402 116.964 124.133 115.409 122.371C113.907 120.609 113.155 118.225 113.155 115.22C113.155 112.629 113.855 110.298 115.254 108.225C116.653 106.1 118.7 104.416 121.394 103.173C124.141 101.929 127.431 101.307 131.265 101.307C136.965 101.307 141.447 102.706 144.712 105.504C147.976 108.303 149.868 111.982 150.386 116.541H136.628C136.369 115.142 135.748 114.08 134.763 113.355C133.83 112.577 132.561 112.189 130.954 112.189C129.711 112.189 128.752 112.422 128.079 112.888C127.457 113.355 127.146 114.002 127.146 114.831C127.146 115.868 127.742 116.671 128.934 117.241C130.125 117.759 132.043 118.303 134.685 118.873C137.846 119.547 140.463 120.298 142.536 121.127C144.66 121.956 146.499 123.304 148.054 125.169C149.66 126.983 150.463 129.47 150.463 132.631C150.463 135.17 149.712 137.45 148.209 139.47C146.759 141.491 144.66 143.098 141.914 144.289C139.219 145.429 136.033 145.999 132.354 145.999Z" fill="url(#paint2_linear_5_178)"/>
<path d="M183.68 132.475V145.455H177.073C165.933 145.455 160.363 139.937 160.363 128.9V114.521H154.999V101.851H160.363V91.2812H175.674V101.851H183.602V114.521H175.674V129.133C175.674 130.325 175.933 131.18 176.452 131.698C177.022 132.216 177.954 132.475 179.25 132.475H183.68Z" fill="url(#paint3_linear_5_178)"/>
<path d="M205.902 109.546C207.612 107.059 209.684 105.09 212.12 103.639C214.555 102.188 217.172 101.463 219.97 101.463V117.707H215.695C212.379 117.707 209.917 118.355 208.311 119.65C206.705 120.946 205.902 123.2 205.902 126.413V145.455H190.667V101.851H205.902V109.546Z" fill="url(#paint4_linear_5_178)"/>
<path d="M245.717 145.999C241.365 145.999 237.453 145.092 233.981 143.279C230.561 141.465 227.867 138.874 225.898 135.506C223.929 132.138 222.944 128.174 222.944 123.614C222.944 119.106 223.929 115.168 225.898 111.8C227.918 108.432 230.639 105.841 234.059 104.028C237.53 102.214 241.443 101.307 245.795 101.307C250.148 101.307 254.034 102.214 257.454 104.028C260.926 105.841 263.646 108.432 265.615 111.8C267.636 115.168 268.646 119.106 268.646 123.614C268.646 128.122 267.636 132.086 265.615 135.506C263.646 138.874 260.926 141.465 257.454 143.279C253.982 145.092 250.07 145.999 245.717 145.999ZM245.717 132.786C247.842 132.786 249.604 132.009 251.003 130.454C252.454 128.848 253.179 126.568 253.179 123.614C253.179 120.661 252.454 118.407 251.003 116.852C249.604 115.298 247.868 114.521 245.795 114.521C243.723 114.521 241.987 115.298 240.588 116.852C239.189 118.407 238.489 120.661 238.489 123.614C238.489 126.62 239.163 128.9 240.51 130.454C241.857 132.009 243.593 132.786 245.717 132.786Z" fill="url(#paint5_linear_5_178)"/>
<path d="M232.93 16.9375H220.703V40.4335C220.703 46.9429 233.742 47.9475 232.997 55.3638C232.964 55.6874 232.93 56.0076 232.93 56.3312V84.2534H245.076V61.3203C245.076 60.2618 244.796 59.2067 244.172 58.3134C240.272 52.6939 232.219 54.2378 232.758 43.5348C232.859 41.5628 232.93 39.5874 232.93 37.6153V16.9375Z" fill="url(#paint6_linear_5_178)"/>
<path d="M255.906 16.9375H243.68V50.7758C243.68 57.2852 256.719 58.2898 255.974 65.706C255.94 66.0297 255.906 66.3499 255.906 66.6735V84.2534H268.052V71.6626C268.052 70.6041 267.772 69.549 267.149 68.6557C263.248 63.0362 255.195 64.5801 255.734 53.8771C255.836 51.9051 255.906 45.4159 255.906 43.4438V16.9375Z" fill="url(#paint7_linear_5_178)"/>
<path d="M261.797 21.546C261.923 11.0489 262.027 10.925 270.75 10.773C262.027 10.621 261.923 10.4971 261.797 0C261.67 10.4971 261.567 10.621 252.844 10.773C261.567 10.925 261.67 11.0489 261.797 21.546Z" fill="url(#paint8_linear_5_178)"/>
</g>
<defs>
<linearGradient id="paint0_linear_5_178" x1="4.4483" y1="99.1468" x2="153.143" y2="250.476" gradientUnits="userSpaceOnUse">
<stop stop-color="#ED8121"/>
<stop offset="1" stop-color="#4F5BF3"/>
</linearGradient>
<linearGradient id="paint1_linear_5_178" x1="4.44852" y1="99.1461" x2="153.143" y2="250.476" gradientUnits="userSpaceOnUse">
<stop stop-color="#ED8121"/>
<stop offset="1" stop-color="#4F5BF3"/>
</linearGradient>
<linearGradient id="paint2_linear_5_178" x1="4.44826" y1="99.1461" x2="153.143" y2="250.476" gradientUnits="userSpaceOnUse">
<stop stop-color="#ED8121"/>
<stop offset="1" stop-color="#4F5BF3"/>
</linearGradient>
<linearGradient id="paint3_linear_5_178" x1="4.44832" y1="99.1469" x2="153.143" y2="250.476" gradientUnits="userSpaceOnUse">
<stop stop-color="#ED8121"/>
<stop offset="1" stop-color="#4F5BF3"/>
</linearGradient>
<linearGradient id="paint4_linear_5_178" x1="4.44833" y1="99.1464" x2="153.143" y2="250.476" gradientUnits="userSpaceOnUse">
<stop stop-color="#ED8121"/>
<stop offset="1" stop-color="#4F5BF3"/>
</linearGradient>
<linearGradient id="paint5_linear_5_178" x1="4.44816" y1="99.1461" x2="153.143" y2="250.476" gradientUnits="userSpaceOnUse">
<stop stop-color="#ED8121"/>
<stop offset="1" stop-color="#4F5BF3"/>
</linearGradient>
<linearGradient id="paint6_linear_5_178" x1="220.7" y1="50.5938" x2="268.046" y2="50.5938" gradientUnits="userSpaceOnUse">
<stop stop-color="#ED8121"/>
<stop offset="1" stop-color="#4F5BF3"/>
</linearGradient>
<linearGradient id="paint7_linear_5_178" x1="220.703" y1="50.5938" x2="268.049" y2="50.5938" gradientUnits="userSpaceOnUse">
<stop stop-color="#ED8121"/>
<stop offset="1" stop-color="#4F5BF3"/>
</linearGradient>
<linearGradient id="paint8_linear_5_178" x1="252.844" y1="10.7719" x2="270.75" y2="10.7719" gradientUnits="userSpaceOnUse">
<stop stop-color="#ED8121"/>
<stop offset="0.1" stop-color="#DE7D34"/>
</linearGradient>
<clipPath id="clip0_5_178">
<rect width="271" height="146" fill="white"/>
</clipPath>
</defs>
</svg>
