<svg width="271" height="146" viewBox="0 0 271 146" fill="none" xmlns="http://www.w3.org/2000/svg">
<path d="M36.8417 56.0591C40.0544 56.7846 42.5934 58.3909 44.4588 60.8781C46.376 63.3135 47.3346 66.1116 47.3346 69.2724C47.3346 73.9359 45.7283 77.589 42.5157 80.2317C39.303 82.8743 34.795 84.1956 28.9915 84.1956H1.8654V29.3994H28.1365C33.7327 29.3994 38.1112 30.643 41.2721 33.1302C44.4847 35.6174 46.091 39.1151 46.091 43.6231C46.091 46.8358 45.236 49.5302 43.5261 51.7065C41.8679 53.831 39.6398 55.2819 36.8417 56.0591ZM17.0995 51.1625H24.7943C28.6288 51.1625 30.546 49.582 30.546 46.4212C30.546 43.1568 28.6288 41.5245 24.7943 41.5245H17.0995V51.1625ZM25.9602 71.9151C29.7946 71.9151 31.7119 70.3088 31.7119 67.0961C31.7119 65.438 31.1937 64.1685 30.1574 63.2876C29.1728 62.4067 27.7479 61.9663 25.8825 61.9663H17.0995V71.9151H25.9602Z" fill="#121327"/>
<path d="M95.6718 61.8885C95.6718 63.0803 95.594 64.2721 95.4386 65.4639H66.6026C66.758 67.8475 67.4057 69.6351 68.5457 70.8269C69.7375 71.9669 71.2402 72.5369 73.0537 72.5369C75.5928 72.5369 77.4064 71.3969 78.4945 69.117H94.7391C94.0655 72.1223 92.7441 74.8168 90.7751 77.2004C88.8579 79.5321 86.4225 81.3716 83.4689 82.7189C80.5154 84.0661 77.2509 84.7397 73.6756 84.7397C69.3748 84.7397 65.5403 83.8329 62.1722 82.0193C58.856 80.2058 56.2392 77.6149 54.322 74.2468C52.4566 70.8787 51.5239 66.9148 51.5239 62.3549C51.5239 57.795 52.4566 53.8569 54.322 50.5407C56.1874 47.1726 58.7782 44.5817 62.0945 42.7681C65.4626 40.9546 69.3229 40.0478 73.6756 40.0478C77.9763 40.0478 81.7849 40.9286 85.1012 42.6904C88.4174 44.4522 91.0083 46.9912 92.8737 50.3075C94.7391 53.5719 95.6718 57.4323 95.6718 61.8885ZM80.1267 58.08C80.1267 56.2146 79.5049 54.7637 78.2613 53.7274C77.0177 52.6392 75.4632 52.0952 73.5978 52.0952C71.7324 52.0952 70.2038 52.6133 69.012 53.6497C67.8203 54.6342 67.043 56.111 66.6803 58.08H80.1267Z" fill="#121327"/>
<path d="M120.482 84.7397C116.544 84.7397 113.021 84.092 109.912 82.7966C106.855 81.4494 104.419 79.6358 102.606 77.3558C100.844 75.0241 99.8594 72.4073 99.6521 69.5056H114.42C114.627 70.9046 115.275 71.9928 116.363 72.7701C117.451 73.5473 118.798 73.9359 120.405 73.9359C121.648 73.9359 122.633 73.6768 123.358 73.1587C124.084 72.6405 124.446 71.9669 124.446 71.1378C124.446 70.0497 123.851 69.2465 122.659 68.7283C121.467 68.2102 119.498 67.6402 116.752 67.0184C113.643 66.3966 111.052 65.6971 108.979 64.9198C106.906 64.1426 105.093 62.873 103.538 61.1113C102.036 59.3495 101.284 56.9659 101.284 53.9606C101.284 51.3697 101.984 49.038 103.383 46.9653C104.782 44.8408 106.829 43.1568 109.523 41.9132C112.27 40.6696 115.56 40.0478 119.394 40.0478C125.094 40.0478 129.576 41.4468 132.841 44.2449C136.105 47.043 137.997 50.722 138.515 55.2819H124.757C124.498 53.8828 123.876 52.8206 122.892 52.0952C121.959 51.3179 120.69 50.9293 119.083 50.9293C117.84 50.9293 116.881 51.1625 116.208 51.6288C115.586 52.0952 115.275 52.7429 115.275 53.5719C115.275 54.6083 115.871 55.4114 117.063 55.9814C118.254 56.4996 120.172 57.0437 122.814 57.6136C125.975 58.2873 128.592 59.0386 130.664 59.8677C132.789 60.6967 134.628 62.044 136.183 63.9094C137.789 65.723 138.592 68.2102 138.592 71.371C138.592 73.91 137.841 76.19 136.338 78.2108C134.888 80.2317 132.789 81.838 130.043 83.0298C127.348 84.1697 124.161 84.7397 120.482 84.7397Z" fill="#121327"/>
<path d="M171.809 71.2155V84.1956H165.202C154.062 84.1956 148.491 78.6772 148.491 67.6402V53.261H143.128V40.5918H148.491V30.0212H163.803V40.5918H171.731V53.261H163.803V67.8734C163.803 69.0652 164.062 69.9201 164.581 70.4383C165.151 70.9565 166.083 71.2155 167.379 71.2155H171.809Z" fill="#121327"/>
<path d="M220.457 61.8885C220.457 63.0803 220.379 64.2721 220.224 65.4639H191.388C191.543 67.8475 192.191 69.6351 193.331 70.8269C194.523 71.9669 196.025 72.5369 197.839 72.5369C200.378 72.5369 202.192 71.3969 203.28 69.117H219.524C218.851 72.1223 217.529 74.8168 215.56 77.2004C213.643 79.5321 211.208 81.3716 208.254 82.7189C205.301 84.0661 202.036 84.7397 198.461 84.7397C194.16 84.7397 190.326 83.8329 186.958 82.0193C183.641 80.2058 181.025 77.6149 179.107 74.2468C177.242 70.8787 176.309 66.9148 176.309 62.3549C176.309 57.795 177.242 53.8569 179.107 50.5407C180.973 47.1726 183.564 44.5817 186.88 42.7681C190.248 40.9546 194.108 40.0478 198.461 40.0478C202.762 40.0478 206.57 40.9286 209.886 42.6904C213.203 44.4522 215.794 46.9912 217.659 50.3075C219.524 53.5719 220.457 57.4323 220.457 61.8885ZM204.912 58.08C204.912 56.2146 204.29 54.7637 203.047 53.7274C201.803 52.6392 200.249 52.0952 198.383 52.0952C196.518 52.0952 194.989 52.6133 193.797 53.6497C192.606 54.6342 191.828 56.111 191.466 58.08H204.912Z" fill="#121327"/>
<path d="M36.8417 108.692C35.9608 107.241 34.7431 106.127 33.1886 105.35C31.686 104.573 29.8983 104.184 27.8256 104.184C23.9912 104.184 20.9599 105.428 18.7318 107.915C16.5555 110.402 15.4673 113.744 15.4673 117.941C15.4673 122.657 16.6332 126.258 18.9649 128.745C21.3485 131.181 24.7943 132.398 29.3024 132.398C34.6395 132.398 38.448 129.989 40.728 125.17H25.4161V114.211H53.8635V128.978C52.6717 131.88 50.91 134.601 48.5782 137.14C46.2983 139.679 43.3965 141.777 39.873 143.435C36.3495 145.042 32.3337 145.845 27.8256 145.845C22.333 145.845 17.4623 144.679 13.2133 142.347C9.01612 139.964 5.75166 136.673 3.41991 132.476C1.13997 128.227 0 123.382 0 117.941C0 112.553 1.13997 107.759 3.41991 103.562C5.75166 99.3133 9.01612 96.023 13.2133 93.6912C17.4104 91.3076 22.2553 90.1159 27.7479 90.1159C34.6395 90.1159 40.3394 91.774 44.8474 95.0903C49.3555 98.4065 52.1536 102.941 53.2417 108.692H36.8417Z" fill="url(#paint0_linear_5_193)"/>
<path d="M58.2034 123.615C58.2034 119.107 59.0065 115.169 60.6129 111.801C62.271 108.433 64.4991 105.842 67.2972 104.029C70.1471 102.215 73.308 101.308 76.7797 101.308C79.7851 101.308 82.3759 101.904 84.5522 103.096C86.7285 104.288 88.4126 105.894 89.6043 107.915V101.852H104.838V145.456H89.6043V139.394C88.4126 141.414 86.7026 143.021 84.4745 144.213C82.2982 145.404 79.7333 146 76.7797 146C73.308 146 70.1471 145.093 67.2972 143.28C64.4991 141.466 62.271 138.875 60.6129 135.507C59.0065 132.087 58.2034 128.123 58.2034 123.615ZM89.6043 123.615C89.6043 120.817 88.8271 118.615 87.2726 117.009C85.7699 115.402 83.9045 114.599 81.6764 114.599C79.3964 114.599 77.5051 115.402 76.0024 117.009C74.4998 118.563 73.7484 120.765 73.7484 123.615C73.7484 126.414 74.4998 128.642 76.0024 130.3C77.5051 131.906 79.3964 132.709 81.6764 132.709C83.9045 132.709 85.7699 131.906 87.2726 130.3C88.8271 128.693 89.6043 126.465 89.6043 123.615Z" fill="url(#paint1_linear_5_193)"/>
<path d="M132.096 146C128.158 146 124.634 145.353 121.525 144.057C118.468 142.71 116.033 140.896 114.219 138.616C112.457 136.285 111.473 133.668 111.265 130.766H126.033C126.24 132.165 126.888 133.253 127.976 134.031C129.064 134.808 130.412 135.196 132.018 135.196C133.262 135.196 134.246 134.937 134.972 134.419C135.697 133.901 136.06 133.227 136.06 132.398C136.06 131.31 135.464 130.507 134.272 129.989C133.08 129.471 131.111 128.901 128.365 128.279C125.256 127.657 122.665 126.958 120.592 126.18C118.52 125.403 116.706 124.134 115.152 122.372C113.649 120.61 112.898 118.226 112.898 115.221C112.898 112.63 113.597 110.298 114.996 108.226C116.395 106.101 118.442 104.417 121.136 103.174C123.883 101.93 127.173 101.308 131.008 101.308C136.707 101.308 141.19 102.707 144.454 105.505C147.718 108.304 149.61 111.983 150.128 116.542H136.371C136.112 115.143 135.49 114.081 134.505 113.356C133.572 112.578 132.303 112.19 130.697 112.19C129.453 112.19 128.494 112.423 127.821 112.889C127.199 113.356 126.888 114.003 126.888 114.832C126.888 115.869 127.484 116.672 128.676 117.242C129.868 117.76 131.785 118.304 134.427 118.874C137.588 119.548 140.205 120.299 142.278 121.128C144.402 121.957 146.242 123.304 147.796 125.17C149.403 126.983 150.206 129.471 150.206 132.632C150.206 135.171 149.454 137.45 147.952 139.471C146.501 141.492 144.402 143.099 141.656 144.29C138.961 145.43 135.775 146 132.096 146Z" fill="url(#paint2_linear_5_193)"/>
<path d="M183.422 132.476V145.456H176.816C165.675 145.456 160.105 139.938 160.105 128.901V114.522H154.742V101.852H160.105V91.2817H175.417V101.852H183.345V114.522H175.417V129.134C175.417 130.326 175.676 131.181 176.194 131.699C176.764 132.217 177.696 132.476 178.992 132.476H183.422Z" fill="url(#paint3_linear_5_193)"/>
<path d="M205.644 109.547C207.354 107.06 209.426 105.091 211.862 103.64C214.297 102.189 216.914 101.464 219.712 101.464V117.708H215.437C212.121 117.708 209.66 118.356 208.053 119.651C206.447 120.947 205.644 123.201 205.644 126.413V145.456H190.41V101.852H205.644V109.547Z" fill="url(#paint4_linear_5_193)"/>
<path d="M245.46 146C241.107 146 237.195 145.093 233.723 143.28C230.303 141.466 227.609 138.875 225.64 135.507C223.671 132.139 222.686 128.175 222.686 123.615C222.686 119.107 223.671 115.169 225.64 111.801C227.661 108.433 230.381 105.842 233.801 104.029C237.273 102.215 241.185 101.308 245.537 101.308C249.89 101.308 253.776 102.215 257.196 104.029C260.668 105.842 263.388 108.433 265.357 111.801C267.378 115.169 268.389 119.107 268.389 123.615C268.389 128.123 267.378 132.087 265.357 135.507C263.388 138.875 260.668 141.466 257.196 143.28C253.724 145.093 249.812 146 245.46 146ZM245.46 132.787C247.584 132.787 249.346 132.01 250.745 130.455C252.196 128.849 252.921 126.569 252.921 123.615C252.921 120.662 252.196 118.408 250.745 116.853C249.346 115.299 247.61 114.522 245.537 114.522C243.465 114.522 241.729 115.299 240.33 116.853C238.931 118.408 238.231 120.662 238.231 123.615C238.231 126.621 238.905 128.901 240.252 130.455C241.599 132.01 243.335 132.787 245.46 132.787Z" fill="url(#paint5_linear_5_193)"/>
<path d="M232.675 16.9375H220.448V40.4335C220.448 46.9429 233.487 47.9475 232.742 55.3638C232.709 55.6874 232.675 56.0076 232.675 56.3312V84.2534H244.821V61.3203C244.821 60.2618 244.541 59.2067 243.917 58.3134C240.017 52.6939 231.964 54.2378 232.503 43.5348C232.604 41.5628 232.675 39.5874 232.675 37.6153V16.9375Z" fill="url(#paint6_linear_5_193)"/>
<path d="M255.649 16.9375H243.422V50.7758C243.422 57.2852 256.461 58.2898 255.716 65.706C255.682 66.0297 255.649 66.3499 255.649 66.6735V84.2534H267.794V71.6626C267.794 70.6041 267.515 69.549 266.891 68.6557C262.991 63.0362 254.937 64.5801 255.477 53.8771C255.578 51.9051 255.649 45.4159 255.649 43.4438V16.9375Z" fill="url(#paint7_linear_5_193)"/>
<path d="M261.539 21.546C261.665 11.0489 261.769 10.925 270.492 10.773C261.769 10.621 261.665 10.4971 261.539 0C261.413 10.4971 261.309 10.621 252.586 10.773C261.309 10.925 261.413 11.0489 261.539 21.546Z" fill="url(#paint8_linear_5_193)"/>
<defs>
<linearGradient id="paint0_linear_5_193" x1="4.19049" y1="99.1475" x2="152.885" y2="250.477" gradientUnits="userSpaceOnUse">
<stop stop-color="#ED8121"/>
<stop offset="1" stop-color="#4F5BF3"/>
</linearGradient>
<linearGradient id="paint1_linear_5_193" x1="4.19049" y1="99.1475" x2="152.885" y2="250.477" gradientUnits="userSpaceOnUse">
<stop stop-color="#ED8121"/>
<stop offset="1" stop-color="#4F5BF3"/>
</linearGradient>
<linearGradient id="paint2_linear_5_193" x1="4.19049" y1="99.1475" x2="152.885" y2="250.477" gradientUnits="userSpaceOnUse">
<stop stop-color="#ED8121"/>
<stop offset="1" stop-color="#4F5BF3"/>
</linearGradient>
<linearGradient id="paint3_linear_5_193" x1="4.19049" y1="99.1475" x2="152.885" y2="250.477" gradientUnits="userSpaceOnUse">
<stop stop-color="#ED8121"/>
<stop offset="1" stop-color="#4F5BF3"/>
</linearGradient>
<linearGradient id="paint4_linear_5_193" x1="4.19049" y1="99.1475" x2="152.885" y2="250.477" gradientUnits="userSpaceOnUse">
<stop stop-color="#ED8121"/>
<stop offset="1" stop-color="#4F5BF3"/>
</linearGradient>
<linearGradient id="paint5_linear_5_193" x1="4.19049" y1="99.1475" x2="152.885" y2="250.477" gradientUnits="userSpaceOnUse">
<stop stop-color="#ED8121"/>
<stop offset="1" stop-color="#4F5BF3"/>
</linearGradient>
<linearGradient id="paint6_linear_5_193" x1="220.445" y1="50.5938" x2="267.791" y2="50.5938" gradientUnits="userSpaceOnUse">
<stop stop-color="#ED8121"/>
<stop offset="1" stop-color="#4F5BF3"/>
</linearGradient>
<linearGradient id="paint7_linear_5_193" x1="220.445" y1="50.5938" x2="267.791" y2="50.5938" gradientUnits="userSpaceOnUse">
<stop stop-color="#ED8121"/>
<stop offset="1" stop-color="#4F5BF3"/>
</linearGradient>
<linearGradient id="paint8_linear_5_193" x1="252.586" y1="10.7719" x2="270.492" y2="10.7719" gradientUnits="userSpaceOnUse">
<stop stop-color="#ED8121"/>
<stop offset="0.1" stop-color="#DE7D34"/>
</linearGradient>
</defs>
</svg>
